<svg width="447" height="446" viewBox="0 0 447 446" fill="none" xmlns="http://www.w3.org/2000/svg">
<g opacity="0.25">
<path fill-rule="evenodd" clip-rule="evenodd" d="M140.345 -50H110.527V97.1672H140.345V-50ZM210.418 294.833H180.6V442H210.418V294.833ZM180.6 -50H210.418V97.1672H180.6V-50ZM280.491 -50H250.673V143.337H443V114.481H280.491V-50ZM140.345 442H110.527V278.962H-48.2545V250.106H140.345V442ZM280.491 294.833H250.673V442H280.491V294.833ZM-49 182.293H129.909L269.309 250.106H443V278.962H262.6L123.2 211.15H-49V182.293ZM129.909 115.924H-49V144.78H123.2L262.6 212.592H443V183.736H269.309L129.909 115.924Z" fill="url(#paint0_linear_24_9603)"/>
</g>
<defs>
<linearGradient id="paint0_linear_24_9603" x1="120.915" y1="-193.582" x2="194.555" y2="401.33" gradientUnits="userSpaceOnUse">
<stop stop-color="#9CD327"/>
<stop offset="1" stop-color="#39D9A7"/>
</linearGradient>
</defs>
</svg>
